<?xml version="1.0" standalone="no"?>
<!DOCTYPE svg PUBLIC "-//W3C//DTD SVG 20010904//EN"
 "http://www.w3.org/TR/2001/REC-SVG-20010904/DTD/svg10.dtd">
<svg version="1.0" xmlns="http://www.w3.org/2000/svg" width="700.000000pt" height="700.000000pt" viewBox="0 0 700.000000 700.000000" preserveAspectRatio="xMidYMid meet">
<metadata>
Created by potrace 1.14, written by Peter Selinger 2001-2017
</metadata>
<g transform="translate(0.000000,700.000000) scale(0.100000,-0.100000)" fill="#000000" stroke="none">
<path d="M2010 6065 l-1475 -853 0 -1712 0 -1712 1479 -854 c814 -470 1483
-854 1487 -854 4 0 672 384 1485 854 l1479 853 0 1713 0 1713 -1479 853 c-813
470 -1483 854 -1490 853 -6 -1 -675 -385 -1486 -854z m1733 -1709 c151 -45
256 -105 371 -215 119 -114 193 -236 243 -398 24 -79 27 -103 27 -243 0 -140
-3 -164 -27 -243 -50 -162 -124 -284 -243 -398 -115 -109 -218 -169 -371 -216
-79 -24 -103 -27 -243 -27 -140 0 -164 3 -243 27 -153 47 -256 107 -371 216
-119 114 -193 236 -243 398 -24 79 -27 103 -27 243 0 140 3 164 27 243 75 246
239 442 462 555 134 67 256 92 425 87 97 -2 144 -9 213 -29z m1884 15 c274
-57 499 -233 619 -486 242 -511 -36 -1103 -586 -1246 -175 -46 -408 -25 -575
50 -130 59 -276 177 -361 291 -42 57 -112 203 -135 282 -30 105 -37 297 -14
409 44 219 164 412 333 537 211 157 467 215 719 163z m-3883 -41 c108 -27 189
-63 280 -124 408 -271 517 -819 245 -1226 -129 -193 -333 -331 -558 -376 -103
-20 -314 -15 -406 10 -72 20 -208 83 -273 128 -195 133 -334 354 -373 592 -15
94 -7 266 16 356 83 317 351 577 668 644 40 9 88 17 107 20 64 7 221 -5 294
-24z"></path>
</g>
</svg>
